<?xml version="1.0" encoding="utf-8"?>
<!-- Generator: Adobe Illustrator 23.0.3, SVG Export Plug-In . SVG Version: 6.00 Build 0)  -->
<svg version="1.1" id="Layer_1" xmlns="http://www.w3.org/2000/svg" xmlns:xlink="http://www.w3.org/1999/xlink" x="0px" y="0px"
	 viewBox="0 0 595.28 841.89" style="enable-background:new 0 0 595.28 841.89;" xml:space="preserve">
<g>
	<g>
		<path d="M460.9,298.52c-0.95,0.12-1.89,0.22-2.84,0.36c-4.45,0.68-8.91,1.3-13.34,2.06c-7.53,1.31-14.95,3.07-22.32,5.08
			c-13.21,3.6-26.11,8.11-38.68,13.56c-13.5,5.85-26.46,12.72-38.8,20.73c-10.5,6.81-20.44,14.37-29.76,22.73
			c-5.95,5.34-11.61,10.98-16.98,16.91c-0.12,0.13-0.2,0.29-0.3,0.44c-0.08,0-0.16,0-0.24,0c-0.54-0.63-1.05-1.28-1.61-1.89
			c-13.31-14.46-28.26-26.98-44.71-37.72c-12-7.84-24.57-14.59-37.67-20.39c-11.59-5.13-23.48-9.44-35.65-12.99
			c-8.58-2.51-17.26-4.65-26.05-6.26c-4.99-0.91-10.02-1.58-15.03-2.35c-0.76-0.12-1.53-0.19-2.29-0.28c31.29,0,62.58,0,93.87,0
			c0.15,0.13,0.28,0.28,0.44,0.38c6.16,4.06,12.33,8.12,18.49,12.17c16.62,10.93,33.24,21.86,49.86,32.8c0.36,0.24,0.6,0.24,0.96,0
			c22.61-14.88,45.23-29.75,67.84-44.63c0.33-0.22,0.63-0.48,0.95-0.72C398.32,298.52,429.61,298.52,460.9,298.52z"/>
		<path d="M365.2,298.52c-0.42,0.11-0.84,0.28-1.27,0.34c-5.78,0.72-11.44,2.03-17.01,3.69c-9.14,2.73-17.85,6.47-26.05,11.35
			c-8.57,5.11-16.27,11.29-22.96,18.71c-0.04,0.04-0.09,0.07-0.11,0.09c-1.6-1.62-3.16-3.26-4.77-4.83
			c-5.21-5.07-10.96-9.45-17.16-13.24c-9.9-6.06-20.51-10.43-31.73-13.33c-4.31-1.11-8.66-1.98-13.08-2.54
			c-0.25-0.03-0.48-0.16-0.73-0.25c12.85,0,25.7,0,38.55,0c0.32,0.25,0.61,0.52,0.95,0.74c9.18,6.04,18.36,12.08,27.53,18.13
			c0.3,0.2,0.51,0.2,0.81,0c9.35-6.16,18.7-12.31,28.05-18.46c0.16-0.11,0.29-0.27,0.43-0.41
			C339.49,298.52,352.35,298.52,365.2,298.52z"/>
	</g>
</g>
</svg>
